<?xml version="1.0" encoding="utf-8"?>
<!-- Generator: Adobe Illustrator 12.0.0, SVG Export Plug-In . SVG Version: 6.00 Build 51448)  -->
<!DOCTYPE svg PUBLIC "-//W3C//DTD SVG 1.1//EN" "http://www.w3.org/Graphics/SVG/1.1/DTD/svg11.dtd" [
	<!ENTITY ns_svg "http://www.w3.org/2000/svg">
	<!ENTITY ns_xlink "http://www.w3.org/1999/xlink">
]>
<svg  version="1.1" id="img-back" xmlns="&ns_svg;" xmlns:xlink="&ns_xlink;" width="100" height="100" viewBox="0 0 100 100"
	 overflow="visible" enable-background="new 0 0 100 100" xml:space="preserve">
<g>
	<g>
		<path fill="#B4BFEF" d="M59.357,18.767H26.285c-6.627,0-12,5.373-12,12V63.84c0,6.627,5.373,12,12,12h33.072
			c6.627,0,12-5.373,12-12V30.767C71.357,24.139,65.984,18.767,59.357,18.767z M52.141,68.848H33.25
			c-11.524,0-11.524-0.459-11.524-11.841V37.599C21.496,25.99,21.496,25.76,33.25,25.76h18.891c11.524,0,11.525,0,11.525,11.838
			v19.408C63.666,69.075,63.896,68.848,52.141,68.848z"/>
	</g>
</g>
<polygon fill="#26F73B" points="75.01,4.548 81.779,9.621 44.773,58.998 26.957,45.646 31.39,39.732 42.605,47.997 "/>
</svg>
