<?xml version="1.0" encoding="utf-8"?>
<!-- Generator: Adobe Illustrator 12.0.0, SVG Export Plug-In . SVG Version: 6.00 Build 51448)  -->
<!DOCTYPE svg PUBLIC "-//W3C//DTD SVG 1.1//EN" "http://www.w3.org/Graphics/SVG/1.1/DTD/svg11.dtd" [
	<!ENTITY ns_svg "http://www.w3.org/2000/svg">
	<!ENTITY ns_xlink "http://www.w3.org/1999/xlink">
]>
<svg  version="1.1" id="Layer_1" xmlns="&ns_svg;" xmlns:xlink="&ns_xlink;" width="200.457" height="200.457"
	 viewBox="0 0 200.457 200.457" overflow="visible" enable-background="new 0 0 200.457 200.457" xml:space="preserve">
<rect y="0.457" fill="#F9F495" width="200" height="200"/>
<circle fill="#F9F495" cx="100.228" cy="100.228" r="100.228"/>
<g>
	<circle fill="#D3BF09" cx="66.919" cy="94.79" r="21.639"/>
	<circle fill="#D3BF09" cx="128.548" cy="81.077" r="21.639"/>
	<path fill="#FCED35" d="M87.181,53.989c0.17,0.727-0.281,1.454-1.01,1.625l-16.178,3.783c-0.727,0.17-1.454-0.282-1.625-1.009l0,0
		c-0.17-0.727,0.281-1.455,1.009-1.625l16.179-3.783C86.283,52.809,87.01,53.261,87.181,53.989L87.181,53.989z"/>
	<path fill="#FCED35" d="M69.434,56.861c0.744,0.069,1.232,1.366,1.09,2.896l-3.142,34.054c-0.14,1.53-0.858,2.715-1.601,2.646l0,0
		c-0.745-0.064-1.234-1.365-1.092-2.896l3.141-34.053C67.972,57.978,68.689,56.792,69.434,56.861L69.434,56.861z"/>
	<path fill="#FCED35" d="M123.691,57.921c0.17,0.728-1.474,1.733-3.672,2.248L71.144,71.597c-2.195,0.512-4.115,0.34-4.286-0.387
		l0,0c-0.169-0.728,1.473-1.734,3.67-2.247l48.876-11.428C121.602,57.021,123.521,57.194,123.691,57.921L123.691,57.921z"/>
	<path fill="#FCED35" d="M129.678,81.176c-0.591,0.458-1.589,0.161-2.229-0.665l-14.232-18.343
		c-0.641-0.824-0.682-1.864-0.092-2.322l0,0c0.592-0.457,1.588-0.161,2.229,0.664l14.236,18.345
		C130.229,79.678,130.268,80.718,129.678,81.176L129.678,81.176z"/>
	
		<ellipse transform="matrix(-0.2057 0.9786 -0.9786 -0.2057 139.0767 4.7952)" fill="#FCED35" cx="67.592" cy="58.84" rx="3.549" ry="2.785"/>
	<circle fill="#FCED35" cx="98.243" cy="88.545" r="5.216"/>
	<circle fill="#D3BF09" cx="97.958" cy="88.532" r="3.477"/>
	<path fill="#FCED35" d="M109.619,97.257c-0.238,0.313-0.783,0.3-1.221-0.032l-9.672-7.369c-0.435-0.33-0.594-0.854-0.356-1.167l0,0
		c0.239-0.313,0.785-0.299,1.218,0.033l9.676,7.372C109.699,96.423,109.855,96.945,109.619,97.257L109.619,97.257z"/>
	<path fill="#FCED35" d="M97.595,88.604c-0.261,0.294-0.753,0.285-1.099-0.022l-7.697-6.816c-0.347-0.305-0.417-0.792-0.155-1.087
		l0,0c0.261-0.294,0.753-0.285,1.098,0.021l7.699,6.817C97.787,87.823,97.854,88.309,97.595,88.604L97.595,88.604z"/>
	<path fill="#FCED35" d="M113.128,95.791c0.166,0.543,0.049,1.061-0.262,1.156l-6.931,2.127c-0.313,0.096-0.699-0.268-0.865-0.811
		l0,0c-0.168-0.541-0.049-1.063,0.263-1.154l6.931-2.129C112.574,94.884,112.958,95.25,113.128,95.791L113.128,95.791z"/>
	<path fill="#FCED35" d="M93.694,80.321c0.167,0.543,0.049,1.06-0.262,1.157l-6.93,2.125c-0.31,0.097-0.698-0.266-0.865-0.809l0,0
		c-0.167-0.542-0.049-1.062,0.262-1.155l6.93-2.129C93.141,79.416,93.526,79.779,93.694,80.321L93.694,80.321z"/>
	<path fill="#FCED35" d="M99.149,89.232c-0.343,0.598-1.628,0.502-2.876-0.207L68.605,73.2c-1.243-0.71-1.976-1.773-1.633-2.37l0,0
		c0.342-0.598,1.628-0.508,2.869,0.204l27.676,15.828C98.76,87.573,99.488,88.633,99.149,89.232L99.149,89.232z"/>
	<path fill="#FCED35" d="M97.561,89.191c-0.599-0.342-0.565-1.531,0.074-2.665l14.227-25.087c0.639-1.128,1.645-1.768,2.242-1.427
		l0,0c0.6,0.34,0.567,1.53-0.072,2.655L99.805,87.765C99.164,88.893,98.161,89.529,97.561,89.191L97.561,89.191z"/>
	<path fill="#FCED35" d="M129.828,80.508c0.063,0.263-0.885,0.708-2.115,0.996l-27.35,6.395c-1.229,0.287-2.274,0.308-2.336,0.046
		l0,0c-0.061-0.263,0.886-0.708,2.116-0.996l27.348-6.395C128.721,80.267,129.768,80.247,129.828,80.508L129.828,80.508z"/>
</g>
</svg>
