<?xml version="1.0" encoding="utf-8"?>
<!-- Generator: Adobe Illustrator 12.0.0, SVG Export Plug-In . SVG Version: 6.00 Build 51448)  -->
<!DOCTYPE svg PUBLIC "-//W3C//DTD SVG 1.1//EN" "http://www.w3.org/Graphics/SVG/1.1/DTD/svg11.dtd" [
	<!ENTITY ns_svg "http://www.w3.org/2000/svg">
	<!ENTITY ns_xlink "http://www.w3.org/1999/xlink">
]>
<svg  version="1.1" id="img-back" xmlns="&ns_svg;" xmlns:xlink="&ns_xlink;" width="100" height="100" viewBox="0 0 100 100"
	 overflow="visible" enable-background="new 0 0 100 100" xml:space="preserve">
<g>
	<g>
		<path fill="#B4BFEF" d="M59.357,18.767H26.285c-6.627,0-12,5.373-12,12V63.84c0,6.627,5.373,12,12,12h33.072
			c6.627,0,12-5.373,12-12V30.767C71.357,24.139,65.984,18.767,59.357,18.767z M52.141,68.848H33.25
			c-11.524,0-11.524-0.459-11.524-11.841V37.599C21.496,25.99,21.496,25.76,33.25,25.76h18.891c11.524,0,11.525,0,11.525,11.838
			v19.408C63.666,69.075,63.896,68.848,52.141,68.848z"/>
	</g>
</g>
<g enable-background="new    ">
	<path fill="#26F73B" d="M26.385,27.823c0.164-2.225,0.679-4.239,1.546-6.043c0.867-1.804,2.015-3.35,3.444-4.639
		c1.429-1.288,3.104-2.277,5.024-2.969c1.92-0.692,4.029-1.037,6.325-1.037c2.248,0,4.345,0.281,6.29,0.844
		c1.944,0.563,3.643,1.384,5.095,2.462c1.451,1.078,2.652,2.497,3.602,4.255c0.95,1.758,1.424,3.739,1.424,5.942
		c0,2.392-0.521,4.426-1.563,6.102c-1.043,1.676-2.324,3.159-3.846,4.448c-1.172,1.078-2.181,1.992-3.021,2.742
		c-0.843,0.75-1.539,1.495-2.09,2.233c-0.551,0.738-0.96,1.554-1.229,2.444c-0.269,0.89-0.415,2.004-0.438,3.34h-8.25
		c0-1.898,0.152-3.497,0.457-4.798c0.305-1.301,0.751-2.449,1.338-3.445c0.586-0.996,1.319-1.921,2.199-2.776
		c0.88-0.854,1.895-1.811,3.044-2.865c0.985-0.797,1.766-1.5,2.341-2.109c0.574-0.609,1.015-1.177,1.319-1.704
		s0.505-1.037,0.599-1.529c0.094-0.492,0.141-1.055,0.141-1.688c0-1.031-0.176-1.974-0.526-2.829s-0.847-1.594-1.489-2.215
		c-0.642-0.621-1.42-1.096-2.332-1.424s-1.929-0.492-3.05-0.492c-2.314,0-4.108,0.638-5.382,1.911
		c-1.273,1.274-2.098,3.221-2.471,5.839H26.385z M47.572,61.511h-9.188v-8.438h9.188V61.511z"/>
</g>
</svg>
