<?xml
    version="1.0"
    encoding="utf-8"?>
<!-- Generator: Adobe Illustrator 12.0.0, SVG Export Plug-In . SVG Version: 6.00 Build 51448)  -->
<!DOCTYPE svg PUBLIC "-//W3C//DTD SVG 1.1//EN" "http://www.w3.org/Graphics/SVG/1.1/DTD/svg11.dtd" [
    <!ENTITY ns_svg "http://www.w3.org/2000/svg">
    <!ENTITY ns_xlink "http://www.w3.org/1999/xlink">
]>
<svg
    version="1.1"
    id="img-back"
    xmlns="&ns_svg;"
    xmlns:xlink="&ns_xlink;"
    width="100"
    height="100"
    viewBox="0 0 100 100"
    overflow="visible"
    enable-background="new 0 0 100 100"
    xml:space="preserve">
    <g>
        <g>
            <path
                fill="#B4BFEF"
                d="M 59.357,18.767
                   H 26.285
                   c -6.627,0 -12,5.373 -12,12
                   V 63.84
                   c 0,6.627 5.373,12 12,12
                   h 33.072
                   c 6.627,0 12,-5.373 12,-12
                   V 30.767
                   C 71.357,24.139 65.984,18.767 59.357,18.767
                   z
                   M 52.141,68.848
                   H 33.25
                   c -11.524,0 -11.524,-0.459 -11.524,-11.841
                   V 37.599
                   C 21.496,25.99 21.496,25.76 33.25,25.76
                   h 18.891
                   c 11.524,0 11.525,0 11.525,11.838
                   v 19.408
                   C 63.666,69.075 63.896,68.848 52.141,68.848
                   z"/>
        </g>
    </g>
    <polygon
        fill="#002BFF"
        points="75.01,4.548
                81.779,9.621
                44.773,58.998
                26.957,45.646
                31.39,39.732
                42.605,47.997"/>
</svg>
