<?xml version="1.0" encoding="utf-8"?>
<!-- Generator: Adobe Illustrator 12.0.0, SVG Export Plug-In . SVG Version: 6.00 Build 51448)  -->
<!DOCTYPE svg PUBLIC "-//W3C//DTD SVG 1.1//EN" "http://www.w3.org/Graphics/SVG/1.1/DTD/svg11.dtd" [
	<!ENTITY ns_svg "http://www.w3.org/2000/svg">
	<!ENTITY ns_xlink "http://www.w3.org/1999/xlink">
]>
<svg  version="1.1" id="Layer_1" xmlns="&ns_svg;" xmlns:xlink="&ns_xlink;" width="200.457" height="200.457"
	 viewBox="0 0 200.457 200.457" overflow="visible" enable-background="new 0 0 200.457 200.457" xml:space="preserve">
<rect y="0.457" fill="#FF6161" width="200" height="200"/>
<circle fill="#FF6161" cx="100.343" cy="99.678" r="100.228"/>
<g>
	<circle fill="#FF0333" cx="82.371" cy="50.272" r="14.497"/>
	<circle fill="#FF0333" cx="114.042" cy="49.945" r="15.116"/>
	<rect x="77.876" y="66.296" fill="#FF0333" width="39.218" height="24.265"/>
	<path fill="#FF0333" d="M75.792,83.361l-14.974,3.868c-1.473-0.895-2.666-3.745-2.512-9.791c0.141-5.532,1.594-9.693,2.512-9.596
		c0.205,0.024,14.876,5.443,14.876,5.443L75.792,83.361z"/>
	<path fill="#FF0333" d="M82.417,136.391h-4.814l13.656-32.465c0,0,0.504,0.662,1.047,1c0.755,0.471,1.412,0.619,1.412,0.619
		L82.417,136.391z"/>
	<path fill="#FF0333" d="M118.641,136.848h-4.586l-12.558-31.533c0,0,0.521-0.138,1.181-0.59c0.814-0.561,1.192-0.916,1.192-0.916
		L118.641,136.848z"/>
	<circle fill="#FF0333" cx="97.34" cy="97.606" r="6.183"/>
	<polygon fill="#FF0333" points="131.533,95.583 120.137,96.788 96.91,89.986 97.429,88.213 120.658,95.014 132.053,93.807 	"/>
	<path fill="#FFFDFD" d="M89.033,86.936c-0.222,0.022-0.892-0.877-0.421-1.817c0.47-0.94,1.936-0.41,1.936-0.41l13.788,4.856
		l-0.471,0.313c0,0-12.691-4.544-13.474-4.778c-0.783-0.235-1.097,0-1.097,0s-0.889,0.262-0.105,1.592
		C89.188,86.691,89.254,86.914,89.033,86.936z"/>
	<path fill="#FFFFFF" d="M61.777,77.877c0,6.818-0.973,8.234-0.973,8.234c-0.648-0.129-1.687-1.936-1.687-8.753
		c0-6.819,1.297-8.56,1.687-8.56C60.804,68.798,61.777,71.058,61.777,77.877z"/>
</g>
</svg>
