<?xml version="1.0" encoding="utf-8"?>
<!-- Generator: Adobe Illustrator 12.0.0, SVG Export Plug-In . SVG Version: 6.00 Build 51448)  -->
<!DOCTYPE svg PUBLIC "-//W3C//DTD SVG 1.1//EN" "http://www.w3.org/Graphics/SVG/1.1/DTD/svg11.dtd" [
	<!ENTITY ns_svg "http://www.w3.org/2000/svg">
	<!ENTITY ns_xlink "http://www.w3.org/1999/xlink">
]>
<svg  version="1.1" id="Layer_1" xmlns="&ns_svg;" xmlns:xlink="&ns_xlink;" width="200.457" height="200.457"
	 viewBox="0 0 200.457 200.457" overflow="visible" enable-background="new 0 0 200.457 200.457" xml:space="preserve">
<rect y="0.457" fill="#FFA664" width="200" height="200"/>
<circle fill="#FFA664" cx="100.228" cy="100.228" r="100.228"/>
<g>
	<ellipse fill="#EF5B11" cx="97.502" cy="100.013" rx="40.271" ry="21.153"/>
	<ellipse fill="#BC420C" cx="97.575" cy="85.338" rx="40.271" ry="21.154"/>
	<path fill="#B73908" d="M59.891,73.34c0,0-4.267,3.303-3.705,4.619c0.563,1.316,0.298,3.608,3.961,3.986
		c3.663,0.378,5.486,0.455,6.951,1.696c1.465,1.241,1.444,3.741,3.341,4.718c1.897,0.979,6.03,1.543,8.06,1.377
		c2.029-0.168,6.502-0.99,9.356,0.589c2.854,1.581,3.361,2.221,5.258,3.198c1.897,0.979,9.055,2.429,11.631,0.627
		c2.574-1.801,4.904-3.812,7.498-2.661c2.592,1.146,4.146,6.239,6.516,4.682s8.01-4.747,9.043-5.968s2.031-5.616,3.555-6.424
		c1.523-0.806,5.621-0.691,6.541-0.54c0.918,0.151,0.527-7.308-0.483-8.587c-1.015-1.278-1.556-5.092-9.843-3.727
		c-8.286,1.366-25.143,3.44-36.113,2.53C80.486,72.545,64.985,69.061,59.891,73.34z"/>
	<ellipse fill="#EF5B11" cx="97.741" cy="68.958" rx="40.271" ry="21.155"/>
	<path fill="#FFA664" d="M66.28,71.167c0,0.375-0.304,0.679-0.679,0.679l0,0c-0.375,0-0.679-0.304-0.679-0.679v-2.715
		c0-0.375,0.304-0.679,0.679-0.679l0,0c0.375,0,0.679,0.304,0.679,0.679V71.167z"/>
	<path fill="#FFA664" d="M71.802,76.346c-0.352,0.13-0.741-0.051-0.871-0.403l0,0c-0.129-0.352,0.049-0.741,0.401-0.871l2.548-0.939
		c0.352-0.13,0.741,0.05,0.871,0.402l0,0c0.13,0.352-0.05,0.742-0.401,0.872L71.802,76.346z"/>
	<path fill="#FFA664" d="M73.235,68.933c-0.016,0.375-0.333,0.665-0.708,0.648l0,0c-0.374-0.017-0.664-0.331-0.648-0.706
		l0.117-2.714c0.016-0.375,0.332-0.664,0.707-0.648l0,0c0.375,0.017,0.665,0.333,0.648,0.708L73.235,68.933z"/>
	<path fill="#FFA664" d="M79.117,81.376c-0.016,0.375-0.333,0.665-0.708,0.648l0,0c-0.374-0.017-0.664-0.331-0.648-0.706
		l0.117-2.714c0.016-0.375,0.332-0.664,0.707-0.648l0,0c0.375,0.017,0.665,0.333,0.648,0.708L79.117,81.376z"/>
	<path fill="#FFA664" d="M96.427,86.427c-0.359,0.109-0.738-0.093-0.846-0.453l0,0c-0.108-0.358,0.092-0.736,0.452-0.845l2.6-0.788
		c0.358-0.108,0.736,0.094,0.846,0.453l0,0c0.108,0.359-0.095,0.738-0.453,0.846L96.427,86.427z"/>
	<path fill="#FFA664" d="M85.054,59.122c-0.255-0.275-0.238-0.704,0.038-0.959l0,0c0.274-0.253,0.703-0.238,0.958,0.037l1.845,1.994
		c0.254,0.275,0.237,0.703-0.038,0.958l0,0c-0.275,0.254-0.705,0.237-0.958-0.038L85.054,59.122z"/>
	<path fill="#FFA664" d="M110.533,68.833c-0.256-0.275-0.238-0.704,0.037-0.959l0,0c0.275-0.253,0.703-0.238,0.959,0.037
		l1.846,1.994c0.254,0.274,0.234,0.702-0.039,0.958l0,0c-0.273,0.254-0.705,0.238-0.959-0.037L110.533,68.833z"/>
	<path fill="#FFA664" d="M88.616,73.799c-0.256-0.275-0.238-0.704,0.038-0.959l0,0c0.274-0.253,0.702-0.238,0.958,0.037l1.845,1.994
		c0.254,0.275,0.236,0.703-0.038,0.959l0,0c-0.275,0.254-0.705,0.238-0.959-0.037L88.616,73.799z"/>
	<path fill="#FFA664" d="M103.292,56.026c-0.256-0.275-0.237-0.704,0.039-0.959l0,0c0.272-0.253,0.701-0.238,0.957,0.037
		l1.846,1.994c0.255,0.275,0.236,0.703-0.038,0.959l0,0c-0.275,0.254-0.705,0.238-0.959-0.037L103.292,56.026z"/>
	<path fill="#FFA664" d="M118.025,81.439c-0.256-0.275-0.238-0.704,0.039-0.959l0,0c0.272-0.253,0.701-0.238,0.957,0.037
		l1.846,1.994c0.254,0.275,0.236,0.703-0.039,0.959l0,0c-0.273,0.254-0.705,0.238-0.959-0.037L118.025,81.439z"/>
	<path fill="#FFA664" d="M123.314,64.247c-0.256-0.275-0.238-0.704,0.037-0.959l0,0c0.274-0.253,0.703-0.238,0.959,0.037
		l1.844,1.994c0.254,0.275,0.236,0.703-0.037,0.959l0,0c-0.275,0.254-0.705,0.238-0.959-0.037L123.314,64.247z"/>
	<path fill="#FFA664" d="M74.286,57.08c0.276-0.255,0.705-0.236,0.96,0.041l0,0c0.252,0.275,0.235,0.703-0.04,0.958l-2,1.839
		c-0.276,0.253-0.704,0.233-0.959-0.041l0,0c-0.253-0.276-0.236-0.706,0.041-0.959L74.286,57.08z"/>
	<path fill="#FFA664" d="M83.336,67.487c0.276-0.255,0.705-0.236,0.96,0.041l0,0c0.252,0.275,0.235,0.703-0.04,0.958l-2,1.839
		c-0.276,0.253-0.704,0.233-0.959-0.041l0,0c-0.253-0.276-0.236-0.706,0.041-0.959L83.336,67.487z"/>
	<path fill="#FFA664" d="M90.715,80.896c0.276-0.255,0.705-0.236,0.96,0.041l0,0c0.252,0.275,0.235,0.703-0.04,0.958l-2,1.839
		c-0.276,0.253-0.704,0.233-0.959-0.041l0,0c-0.253-0.276-0.236-0.706,0.041-0.959L90.715,80.896z"/>
	<path fill="#FFA664" d="M94.422,51.876c0.276-0.255,0.705-0.236,0.96,0.041l0,0c0.252,0.275,0.235,0.703-0.04,0.958l-2,1.839
		c-0.276,0.253-0.704,0.233-0.959-0.041l0,0c-0.253-0.276-0.236-0.706,0.041-0.959L94.422,51.876z"/>
	<path fill="#FFA664" d="M112.068,81.062c0.277-0.255,0.705-0.236,0.961,0.041l0,0c0.252,0.275,0.234,0.703-0.041,0.958l-2,1.839
		c-0.275,0.253-0.703,0.233-0.959-0.041l0,0c-0.252-0.276-0.234-0.706,0.041-0.959L112.068,81.062z"/>
	<path fill="#FFA664" d="M99.297,66.774c0.276-0.255,0.705-0.236,0.96,0.041l0,0c0.252,0.275,0.235,0.703-0.04,0.958l-2,1.839
		c-0.276,0.253-0.704,0.233-0.959-0.041l0,0c-0.253-0.276-0.236-0.706,0.041-0.959L99.297,66.774z"/>
	<path fill="#FFA664" d="M115.689,57.532c0.274-0.255,0.705-0.236,0.959,0.041l0,0c0.252,0.275,0.235,0.703-0.039,0.958l-2,1.839
		c-0.275,0.253-0.703,0.233-0.959-0.041l0,0c-0.254-0.276-0.236-0.706,0.041-0.959L115.689,57.532z"/>
	<path fill="#FFA664" d="M133.354,65.98c0.276-0.255,0.705-0.236,0.961,0.041l0,0c0.252,0.275,0.233,0.703-0.041,0.958l-2,1.839
		c-0.273,0.253-0.703,0.233-0.959-0.041l0,0c-0.252-0.276-0.234-0.706,0.041-0.959L133.354,65.98z"/>
	<path fill="#FFA664" d="M103.955,75.339c0.367,0.084,0.592,0.45,0.508,0.816l0,0c-0.086,0.363-0.447,0.591-0.813,0.507
		l-2.646-0.617c-0.364-0.085-0.589-0.45-0.506-0.815l0,0c0.086-0.365,0.45-0.593,0.814-0.507L103.955,75.339z"/>
	<path fill="#FFA664" d="M98.564,61.757c0.326,0.188,0.436,0.602,0.248,0.928l0,0c-0.188,0.323-0.601,0.436-0.926,0.249
		l-2.353-1.359c-0.324-0.188-0.433-0.602-0.248-0.927l0,0c0.188-0.324,0.604-0.436,0.927-0.248L98.564,61.757z"/>
	<path fill="#FFA664" d="M123.746,74.481c0.326,0.188,0.438,0.602,0.248,0.928l0,0c-0.188,0.322-0.602,0.436-0.926,0.248
		l-2.354-1.359c-0.323-0.188-0.435-0.602-0.248-0.927l0,0c0.188-0.324,0.604-0.436,0.929-0.248L123.746,74.481z"/>
	<path fill="#FFA664" d="M113.044,52.707c0.326,0.188,0.437,0.602,0.248,0.928l0,0c-0.188,0.322-0.603,0.436-0.926,0.248
		l-2.354-1.359c-0.324-0.188-0.434-0.602-0.248-0.927l0,0c0.188-0.324,0.604-0.436,0.928-0.248L113.044,52.707z"/>
	<path fill="#FFA664" d="M124.964,56.353c0.326,0.188,0.437,0.602,0.248,0.928l0,0c-0.188,0.322-0.601,0.436-0.926,0.248
		l-2.354-1.359c-0.322-0.188-0.434-0.602-0.246-0.927l0,0c0.188-0.324,0.604-0.436,0.926-0.248L124.964,56.353z"/>
</g>
</svg>
