<?xml version="1.0" encoding="utf-8"?>
<!-- Generator: Adobe Illustrator 12.0.0, SVG Export Plug-In . SVG Version: 6.00 Build 51448)  -->
<!DOCTYPE svg PUBLIC "-//W3C//DTD SVG 1.1//EN" "http://www.w3.org/Graphics/SVG/1.1/DTD/svg11.dtd" [
	<!ENTITY ns_svg "http://www.w3.org/2000/svg">
	<!ENTITY ns_xlink "http://www.w3.org/1999/xlink">
]>
<svg  version="1.1"
	  id="Layer_1"
	  xmlns="&ns_svg;"
	  xmlns:xlink="&ns_xlink;"
	  width="84.652"
	  height="84.038"
	  viewBox="0 0 84.652 84.038"
	  overflow="visible"
	  enable-background="new 0 0 84.652 84.038"
	  xml:space="preserve">
<g>
	<path fill="#002BFF"
		  d="M 67.807,21.09
		     H 16.246
		     c -3.973,0 -7.193,3.221 -7.193,7.193
		     v 48.56
		     c 0,3.975 3.221,7.193 7.193,7.193
		     h 51.562
		     c 3.972,0 7.192,-3.219 7.192,-7.193
		     v -48.56
		     C 75,24.311 71.779,21.09 67.807,21.09
		     z
		     M 27.455,61.373
		     c 0,1.4 -1.135,2.535 -2.534,2.535
		     h -4.948
		     c -1.399,0 -2.534,-1.135 -2.534,-2.535
		     v -4.947
		     c 0,-1.4 1.135,-2.535 2.534,-2.535
		     h 4.948
		     c 1.399,0 2.534,1.135 2.534,2.535
		     V 61.373
		     z
		     M 27.455,49.001
		     c 0,1.398 -1.135,2.535 -2.534,2.535
		     h -4.948
		     c -1.399,0 -2.534,-1.137 -2.534,-2.535
		     v -4.949
		     c 0,-1.398 1.135,-2.532 2.534,-2.532
		     h 4.948
		     c 1.399,0 2.534,1.133 2.534,2.532
		     V 49.001
		     z
		     M 39.47,61.279
		     c 0,1.396 -1.135,2.533 -2.535,2.533
		     h -4.948
		     c -1.4,0 -2.535,-1.137 -2.535,-2.533
		     V 56.33
		     c 0,-1.398 1.135,-2.533 2.535,-2.533
		     h 4.948
		     c 1.399,0 2.535,1.135 2.535,2.533
		     V 61.279
		     z
		     M 39.47,48.906
		     c 0,1.4 -1.135,2.531 -2.535,2.531
		     h -4.948
		     c -1.4,0 -2.535,-1.131 -2.535,-2.531
		     v -4.949
		     c 0,-1.397 1.135,-2.534 2.535,-2.534
		     h 4.948
		     c 1.399,0 2.535,1.137 2.535,2.534
		     V 48.906
		     z"/>
	<path fill="#002BFF"
		  d="M 80.083,27.784
		     c 4.352,3.083 7.709,9.625 -0.215,9.398
		     L 5.026,37.471
		     c -8.939,-0.161 -4.077,-6.094 0.214,-9.398
		     L 37.366,1.844
		     c 2.655,-2.538 6.862,-2.444 9.4,0.209
		     L 80.083,27.784
		     z"/>
</g>
</svg>
