<?xml version="1.0" encoding="utf-8"?>
<!-- Generator: Adobe Illustrator 12.0.0, SVG Export Plug-In . SVG Version: 6.00 Build 51448)  -->
<!DOCTYPE svg PUBLIC "-//W3C//DTD SVG 1.1//EN" "http://www.w3.org/Graphics/SVG/1.1/DTD/svg11.dtd" [
	<!ENTITY ns_svg "http://www.w3.org/2000/svg">
	<!ENTITY ns_xlink "http://www.w3.org/1999/xlink">
]>
<svg  version="1.1" id="Layer_1" xmlns="&ns_svg;" xmlns:xlink="&ns_xlink;" width="84.652" height="84.038"
	 viewBox="0 0 84.652 84.038" overflow="visible" enable-background="new 0 0 84.652 84.038" xml:space="preserve">
<g>
	<path fill="#002BFF" d="M67.807,21.09H16.246c-3.973,0-7.193,3.221-7.193,7.193v48.56c0,3.975,3.221,7.193,7.193,7.193h51.562
		c3.972,0,7.192-3.219,7.192-7.193v-48.56C75,24.311,71.779,21.09,67.807,21.09z M27.455,61.373c0,1.4-1.135,2.535-2.534,2.535
		h-4.948c-1.399,0-2.534-1.135-2.534-2.535v-4.947c0-1.4,1.135-2.535,2.534-2.535h4.948c1.399,0,2.534,1.135,2.534,2.535V61.373z
		 M27.455,49.001c0,1.398-1.135,2.535-2.534,2.535h-4.948c-1.399,0-2.534-1.137-2.534-2.535v-4.949c0-1.398,1.135-2.532,2.534-2.532
		h4.948c1.399,0,2.534,1.133,2.534,2.532V49.001z M39.47,61.279c0,1.396-1.135,2.533-2.535,2.533h-4.948
		c-1.4,0-2.535-1.137-2.535-2.533V56.33c0-1.398,1.135-2.533,2.535-2.533h4.948c1.399,0,2.535,1.135,2.535,2.533V61.279z
		 M39.47,48.906c0,1.4-1.135,2.531-2.535,2.531h-4.948c-1.4,0-2.535-1.131-2.535-2.531v-4.949c0-1.397,1.135-2.534,2.535-2.534
		h4.948c1.399,0,2.535,1.137,2.535,2.534V48.906z"/>
	<path fill="#002BFF" d="M80.083,27.784c4.352,3.083,7.709,9.625-0.215,9.398L5.026,37.471c-8.939-0.161-4.077-6.094,0.214-9.398
		L37.366,1.844c2.655-2.538,6.862-2.444,9.4,0.209L80.083,27.784z"/>
</g>
</svg>
