<?xml version="1.0" encoding="utf-8"?>
<!-- Generator: Adobe Illustrator 12.0.0, SVG Export Plug-In . SVG Version: 6.00 Build 51448)  -->
<!DOCTYPE svg PUBLIC "-//W3C//DTD SVG 1.1//EN" "http://www.w3.org/Graphics/SVG/1.1/DTD/svg11.dtd" [
	<!ENTITY ns_svg "http://www.w3.org/2000/svg">
	<!ENTITY ns_xlink "http://www.w3.org/1999/xlink">
]>
<svg  version="1.1" id="Layer_1" xmlns="&ns_svg;" xmlns:xlink="&ns_xlink;" width="200.457" height="200.457"
	 viewBox="0 0 200.457 200.457" overflow="visible" enable-background="new 0 0 200.457 200.457" xml:space="preserve">
<rect y="0.457" fill="#FFA664" width="200" height="200"/>
<circle fill="#FFA664" cx="100.228" cy="100.228" r="100.228"/>
<g>
	<path fill="#EF5B11" d="M74.551,75.865c0.407,0.002,49.813,0.32,50.217,0.327c21.676,0.368,39.012,6.876,38.961,14.733
		c-0.051,7.875-17.545,14.173-39.293,14.237c-0.356,0.002-49.711-0.311-50.068-0.313c-22.241-0.143-40.229-6.744-40.179-14.748
		C34.239,82.098,52.311,75.724,74.551,75.865z"/>
	<path fill="#BC420C" d="M69.558,71.832c0.27,0.002,60.463,0.384,60.734,0.387c34,0.292,39.983,5.162,39.944,11.113
		c-0.036,5.936-5.941,10.723-39.827,10.605c-0.353-0.002-60.634-0.386-60.99-0.388c-34.374-0.219-41.979-5.128-41.941-11.126
		C27.517,76.426,35.182,71.613,69.558,71.832z"/>
	<path fill="#B73908" d="M34.611,74.738c0,0-4.28,1.992-3.723,2.798c0.558,0.807,0.284,2.207,3.946,2.459
		c3.661,0.255,5.483,0.314,6.944,1.082c1.46,0.768,1.429,2.294,3.322,2.905c1.894,0.609,6.023,0.979,8.055,0.892
		c2.029-0.09,6.506-0.563,9.353,0.419c2.848,0.984,3.352,1.377,5.246,1.987c1.893,0.61,62.045,1.877,64.628,0.794
		c2.579-1.085,4.919-2.297,7.509-1.579c2.588,0.717,4.123,3.838,6.498,2.902c2.375-0.937,8.025-2.85,9.063-3.588
		c1.039-0.739,2.054-3.418,3.581-3.902c1.525-0.482,9.257-0.082,10.177,0.017c0.919,0.099,0.003-4.763-1.004-5.55
		c-1.009-0.787-4.618-3.126-12.909-2.345c-8.291,0.783-78.154,1.606-89.121,0.979C55.208,74.382,39.722,72.155,34.611,74.738z"/>
	<path fill="#EF5B11" d="M62.265,62.009c0.492,0.003,73.979,0.473,74.467,0.48c21.582,0.316,26.807,5.461,26.773,10.508
		c-0.031,5.1-5.675,8.208-27.572,8.168c-0.264-0.002-73.524-0.466-73.789-0.468c-22.261-0.142-28.287-3.365-28.254-8.524
		C33.923,67.013,40.003,61.868,62.265,62.009z"/>
</g>
</svg>
