<?xml version="1.0" encoding="utf-8"?>
<!-- Generator: Adobe Illustrator 12.0.0, SVG Export Plug-In . SVG Version: 6.00 Build 51448)  -->
<!DOCTYPE svg PUBLIC "-//W3C//DTD SVG 1.1//EN" "http://www.w3.org/Graphics/SVG/1.1/DTD/svg11.dtd" [
	<!ENTITY ns_svg "http://www.w3.org/2000/svg">
	<!ENTITY ns_xlink "http://www.w3.org/1999/xlink">
]>
<svg  version="1.1" id="Layer_1" xmlns="&ns_svg;" xmlns:xlink="&ns_xlink;" width="524.497" height="128.129"
	 viewBox="0 0 524.497 128.129" overflow="visible" enable-background="new 0 0 524.497 128.129" xml:space="preserve">
<g>
	<g>
		<path fill="#ECDB55" d="M76.908,100.09c0-4.556,1.122-8.965,3.368-13.229c2.245-4.264,5.426-7.518,9.543-9.764
			c4.116-2.246,8.713-3.369,13.79-3.369c7.842,0,14.27,2.547,19.281,7.641s7.518,11.529,7.518,19.307
			c0,7.844-2.53,14.345-7.591,19.503s-11.431,7.737-19.11,7.737c-4.752,0-9.283-1.074-13.595-3.222
			c-4.313-2.148-7.591-5.297-9.836-9.446C78.03,111.099,76.908,106.046,76.908,100.09z M90.971,100.822
			c0,5.14,1.219,9.075,3.657,11.808s5.446,4.099,9.023,4.099c3.576,0,6.576-1.366,8.998-4.099s3.634-6.7,3.634-11.905
			c0-5.074-1.212-8.978-3.634-11.71s-5.422-4.099-8.998-4.099c-3.577,0-6.585,1.366-9.023,4.099S90.971,95.684,90.971,100.822z"/>
		<path fill="#ECDB55" d="M137.992,100.09c0-4.556,1.122-8.965,3.368-13.229c2.245-4.264,5.426-7.518,9.543-9.764
			c4.116-2.246,8.713-3.369,13.79-3.369c7.842,0,14.27,2.547,19.281,7.641s7.518,11.529,7.518,19.307
			c0,7.844-2.53,14.345-7.591,19.503s-11.431,7.737-19.11,7.737c-4.752,0-9.283-1.074-13.595-3.222
			c-4.313-2.148-7.591-5.297-9.836-9.446C139.114,111.099,137.992,106.046,137.992,100.09z M152.055,100.822
			c0,5.14,1.219,9.075,3.657,11.808s5.446,4.099,9.023,4.099c3.576,0,6.576-1.366,8.998-4.099s3.634-6.7,3.634-11.905
			c0-5.074-1.212-8.978-3.634-11.71s-5.422-4.099-8.998-4.099c-3.577,0-6.585,1.366-9.023,4.099S152.055,95.684,152.055,100.822z"/>
		<path fill="#ECDB55" d="M215.389,126.729h-13.75V74.854h12.75v7.373c2.184-3.482,4.146-5.77,5.891-6.861
			c1.744-1.091,3.724-1.637,5.94-1.637c3.129,0,6.144,0.863,9.044,2.59l-4.219,11.969c-2.316-1.497-4.469-2.246-6.458-2.246
			c-1.925,0-3.556,0.529-4.893,1.586c-1.338,1.057-2.39,2.968-3.156,5.732s-1.149,8.554-1.149,17.367V126.729z"/>
		<path fill="#ECDB55" d="M288.68,126.729h-12.75v-7.617c-2.111,2.963-4.604,5.171-7.479,6.624s-5.774,2.181-8.698,2.181
			c-5.945,0-11.037-2.399-15.276-7.2s-6.358-11.497-6.358-20.089c0-8.787,2.061-15.467,6.184-20.039s9.333-6.859,15.631-6.859
			c5.778,0,10.777,2.409,14.998,7.227V55.104h13.75V126.729z M252.18,99.714c0,5.536,0.76,9.542,2.281,12.017
			c2.2,3.582,5.274,5.373,9.222,5.373c3.139,0,5.809-1.343,8.009-4.029s3.301-6.7,3.301-12.042c0-5.959-1.068-10.25-3.204-12.871
			s-4.87-3.933-8.202-3.933c-3.236,0-5.946,1.295-8.13,3.884C253.271,90.701,252.18,94.568,252.18,99.714z"/>
		<path fill="#ECDB55" d="M302.264,67.791V55.104h13.75v12.688H302.264z M302.264,126.729V74.854h13.75v51.875H302.264z"/>
		<path fill="#ECDB55" d="M377.172,126.729h-13.75v-26.446c0-5.595-0.292-9.214-0.876-10.856s-1.532-2.92-2.846-3.831
			c-1.313-0.91-2.895-1.366-4.742-1.366c-2.368,0-4.492,0.651-6.373,1.952s-3.17,3.025-3.867,5.172
			c-0.697,2.147-1.046,6.116-1.046,11.906v23.47h-13.75V74.854h12.75v7.617c4.521-5.828,10.215-8.742,17.079-8.742
			c3.025,0,5.79,0.545,8.295,1.635s4.4,2.481,5.686,4.173c1.285,1.692,2.18,3.612,2.684,5.759c0.504,2.147,0.757,5.222,0.757,9.224
			V126.729z"/>
		<path fill="#ECDB55" d="M401.381,90.729l-12.438-2.25c1.4-5.014,3.811-8.726,7.23-11.136c3.42-2.409,8.501-3.614,15.243-3.614
			c6.123,0,10.684,0.725,13.68,2.172c2.996,1.448,5.105,3.286,6.327,5.515c1.221,2.229,1.832,6.32,1.832,12.273l-0.188,16.008
			c0,4.555,0.22,7.914,0.659,10.078s1.261,4.481,2.466,6.954h-13.563c-0.358-0.912-0.798-2.264-1.319-4.055
			c-0.229-0.814-0.391-1.352-0.488-1.612c-2.346,2.285-4.854,3.998-7.523,5.141c-2.671,1.143-5.521,1.714-8.549,1.714
			c-5.342,0-9.551-1.448-12.629-4.345s-4.616-6.558-4.616-10.983c0-2.928,0.7-5.539,2.101-7.834c1.4-2.294,3.363-4.051,5.889-5.271
			c2.524-1.221,6.165-2.286,10.921-3.198c6.417-1.203,10.863-2.326,13.34-3.368V91.55c0-2.636-0.652-4.515-1.955-5.638
			c-1.303-1.122-3.763-1.684-7.379-1.684c-2.443,0-4.35,0.481-5.718,1.442C403.335,86.632,402.228,88.318,401.381,90.729z
			 M419.756,101.854c-1.758,0.585-4.54,1.283-8.347,2.096c-3.808,0.813-6.297,1.608-7.469,2.388
			c-1.79,1.268-2.685,2.876-2.685,4.825c0,1.917,0.716,3.574,2.147,4.971c1.432,1.397,3.255,2.096,5.468,2.096
			c2.473,0,4.831-0.812,7.077-2.437c1.659-1.234,2.749-2.745,3.271-4.532c0.357-1.17,0.537-3.396,0.537-6.677V101.854z"/>
		<path fill="#ECDB55" d="M470.496,74.854v10.938h-9.375v20.924c0,4.237,0.089,6.706,0.269,7.406
			c0.18,0.701,0.587,1.279,1.224,1.735c0.636,0.457,1.41,0.685,2.323,0.685c1.271,0,3.114-0.439,5.528-1.318l1.156,10.643
			c-3.188,1.367-6.799,2.051-10.832,2.051c-2.473,0-4.7-0.416-6.685-1.246s-3.44-1.905-4.367-3.226
			c-0.928-1.319-1.569-3.103-1.927-5.351c-0.293-1.596-0.439-4.821-0.439-9.677V85.791h-6.313V74.854h6.313V64.541l13.75-8.063
			v18.375H470.496z"/>
		<path fill="#ECDB55" d="M510.047,110.229l13.688,2.313c-1.758,5.012-4.531,8.827-8.322,11.446s-8.534,3.929-14.228,3.929
			c-9.014,0-15.685-2.945-20.013-8.836c-3.417-4.719-5.125-10.674-5.125-17.867c0-8.592,2.246-15.32,6.738-20.186
			s10.172-7.299,17.041-7.299c7.715,0,13.802,2.548,18.262,7.644c4.459,5.096,6.592,12.902,6.396,23.419h-34.375
			c0.098,4.064,1.202,7.226,3.314,9.485s4.745,3.39,7.897,3.39c2.145,0,3.947-0.587,5.41-1.762
			C508.194,114.73,509.299,112.838,510.047,110.229z M510.859,96.416c-0.098-3.98-1.123-7.007-3.076-9.079s-4.329-3.108-7.128-3.108
			c-2.995,0-5.469,1.094-7.421,3.279c-1.953,2.187-2.914,5.156-2.881,8.908H510.859z"/>
	</g>
	<g>
		<g>
			<path fill="#ECDB55" d="M37.443,109.633c-10.463,0-18.946-8.484-18.946-18.947c0-10.465,8.483-18.946,18.946-18.946
				c6.354,0,11.974,3.129,15.411,7.929c5.417-2.946,10.947-5.555,16.167-9.092c-6.649-10.42-18.303-17.334-31.578-17.334
				C16.764,53.242,0,70.006,0,90.686c0,20.678,16.764,37.443,37.443,37.443c14.385,0,26.867-8.115,33.138-20.012
				c-4.885-4.099-10.571-6.342-16.223-8.898C51.236,105.395,44.836,109.633,37.443,109.633z"/>
			<polygon fill="#ECDB55" points="69.923,109.324 54.121,99.672 54.888,98.236 70.887,107.725 			"/>
			<polygon fill="#ECDB55" points="69.192,70.838 53.004,79.893 52.133,78.516 68.473,69.777 			"/>
		</g>
		<path fill="#EF4E45" d="M62.904,27.335C63.249,11.856,50.666,0,35.569,0C20.472,0,8.233,12.238,8.233,27.335
			c-0.793,19.1,24.377,34.982,28.719,64.48C40.061,62.467,62.606,49.813,62.904,27.335z"/>
		<circle fill="#A30808" cx="35.335" cy="27.657" r="11.994"/>
	</g>
</g>
</svg>
