<?xml
    version="1.0"
    encoding="utf-8"?>
<!-- Generator: Adobe Illustrator 12.0.0, SVG Export Plug-In . SVG Version: 6.00 Build 51448)  -->
<!DOCTYPE svg PUBLIC "-//W3C//DTD SVG 1.1//EN" "http://www.w3.org/Graphics/SVG/1.1/DTD/svg11.dtd" [
	<!ENTITY ns_svg "http://www.w3.org/2000/svg">
	<!ENTITY ns_xlink "http://www.w3.org/1999/xlink">
]>
<svg
    version="1.1"
    xmlns="&ns_svg;"
    xmlns:xlink="&ns_xlink;"
    width="100"
    height="100"
    viewBox="0 0 100 100"
    overflow="visible"
    enable-background="new 0 0 100 100"
    xml:space="preserve">
    <g>
        <g>
            <path
                fill="#E8E9ED"
                d="M 59.357,18.767
                   H 26.285
                   c -6.627,0 -12,5.373 -12,12
                   V 63.84
                   c 0,6.627 5.373,12 12,12
                   h 33.072
                   c 6.627,0 12,-5.373 12,-12
                   V 30.767
                   C 71.357,24.139 65.984,18.767 59.357,18.767
                   z
                   M 52.141,68.848
                   H 33.25
                   c -11.524,0 -11.524,-0.459 -11.524,-11.841
                   V 37.599
                   C 21.496,25.99 21.496,25.76 33.25,25.76
                   h 18.891
                   c 11.524,0 11.525,0 11.525,11.838
                   v 19.408
                   C 63.666,69.075 63.896,68.848 52.141,68.848
                   z"/>
        </g>
    </g>
    <g enable-background="new    ">
        <path
            fill="#828282"
            d="M 26.385,27.823
               c 0.164,-2.225 0.679,-4.239 1.546,-6.043
               c 0.867,-1.804 2.015,-3.35 3.444,-4.639
               c 1.429,-1.288 3.104,-2.277 5.024,-2.969
               c 1.92,-0.692 4.029,-1.037 6.325,-1.037
               c 2.248,0 4.345,0.281 6.29,0.844
               c 1.944,0.563 3.643,1.384 5.095,2.462
               c 1.451,1.078 2.652,2.497 3.602,4.255
               c 0.95,1.758 1.424,3.739 1.424,5.942
               c 0,2.392 -0.521,4.426 -1.563,6.102
               c -1.043,1.676 -2.324,3.159 -3.846,4.448
               c -1.172,1.078 -2.181,1.992 -3.021,2.742
               c -0.843,0.75 -1.539,1.495 -2.09,2.233
               c -0.551,0.738 -0.96,1.554 -1.229,2.444
               c -0.269,0.89 -0.415,2.004 -0.438,3.34
               h -8.25
               c 0,-1.898 0.152,-3.497 0.457,-4.798
               c 0.305,-1.301 0.751,-2.449 1.338,-3.445
               c 0.586,-0.996 1.319,-1.921 2.199,-2.776
               c 0.88,-0.854 1.895,-1.811 3.044,-2.865
               c 0.985,-0.797 1.766,-1.5 2.341,-2.109
               c 0.574,-0.609 1.015,-1.177 1.319,-1.704
               s 0.505,-1.037 0.599,-1.529
               c 0.094,-0.492 0.141,-1.055 0.141,-1.688
               c 0,-1.031 -0.176,-1.974 -0.526,-2.829
               s -0.847,-1.594 -1.489,-2.215
               c -0.642,-0.621 -1.42,-1.096 -2.332,-1.424
               s -1.929,-0.492 -3.05,-0.492
               c -2.314,0 -4.108,0.638 -5.382,1.911
               c -1.273,1.274 2.098,3.221 -2.471,5.839
               H 26.385
               z
               M 47.572,61.511
               h -9.188
               v -8.438
               h 9.188
               V 61.511
               z"/>
    </g>
</svg>
