<?xml version="1.0" encoding="utf-8"?>
<!-- Generator: Adobe Illustrator 12.0.0, SVG Export Plug-In . SVG Version: 6.00 Build 51448)  -->
<!DOCTYPE svg PUBLIC "-//W3C//DTD SVG 1.1//EN" "http://www.w3.org/Graphics/SVG/1.1/DTD/svg11.dtd" [
	<!ENTITY ns_svg "http://www.w3.org/2000/svg">
	<!ENTITY ns_xlink "http://www.w3.org/1999/xlink">
]>
<svg  version="1.1" xmlns="&ns_svg;" xmlns:xlink="&ns_xlink;" width="100" height="100" viewBox="0 0 100 100"
	 overflow="visible" enable-background="new 0 0 100 100" xml:space="preserve">
<path fill="#828282" d="M67.56,13.159c0,0,0.425-0.419,0.554,0.001c0.202,0.66,0.683,1.777,2.062,2.84
	c1.528,1.179,3.056,1.507,3.91,1.594c0.604,0.031,0.188,0.733,0.188,0.733L42.671,60.462l-10.173,6.619l3.106-11.084L67.56,13.159z"
	/>
<path fill="#828282" d="M79.478,11.97c-0.815,1.175-3.185,1.917-6.108-0.226s-2.121-4.407-1.419-5.357l2.537-3.422
	c0.842-1.134,2.441-1.372,3.575-0.531l3.423,2.538c1.134,0.841,1.371,2.441,0.53,3.575L79.478,11.97z"/>
<line fill="none" stroke="#828282" stroke-width="2" x1="13.465" y1="68.75" x2="76.676" y2="68.75"/>
</svg>
