<?xml version="1.0" encoding="utf-8"?>
<!-- Generator: Adobe Illustrator 12.0.0, SVG Export Plug-In . SVG Version: 6.00 Build 51448)  -->
<!DOCTYPE svg PUBLIC "-//W3C//DTD SVG 1.1//EN" "http://www.w3.org/Graphics/SVG/1.1/DTD/svg11.dtd" [
	<!ENTITY ns_svg "http://www.w3.org/2000/svg">
	<!ENTITY ns_xlink "http://www.w3.org/1999/xlink">
]>
<svg
    version="1.1"
    xmlns="&ns_svg;"
    xmlns:xlink="&ns_xlink;"
    width="100"
    height="100"
    viewBox="0 0 100 100"
    overflow="visible"
    enable-background="new 0 0 100 100"
    xml:space="preserve">
    <g>
        <g>
            <path
                fill="#828282"
                d="M 67.708,14.995
                   H 27.654
                   c -3.856,0 -6.982,3.126 -6.982,6.982
                   v 40.055
                   c 0,3.855 3.126,6.982 6.982,6.982
                   h 40.054
                   c 3.856,0 6.982,-3.127 6.982,-6.982
                   V 21.977
                   C 74.69,18.121 71.564,14.995 67.708,14.995
                   z
                   M 70.47,59.426
                   c 0,2.731 -2.686,4.945 -6,4.945
                   H 30.894
                   c -3.314,0 -6,-2.214 -6,-4.945
                   V 29.756
                   c -0.018,-5.432 -0.171,-4.945 6,-4.945
                   H 64.47
                   c 5.888,0 6,-0.795 6,4.945
                   V 59.426
                   z"/>
        </g>
    </g>
    <g>
        <g>
            <line
                fill="none"
                stroke="#828282"
                x1="23.196"
                y1="38.301"
                x2="74.259"
                y2="38.301"/>
            <line
                fill="none"
                stroke="#828282"
                x1="23.196"
                y1="44.756"
                x2="74.259"
                y2="44.756"/>
            <line
                fill="none"
                stroke="#828282"
                x1="23.196"
                y1="51.519"
                x2="74.259"
                y2="51.519"/>
            <line
                fill="none"
                stroke="#828282"
                x1="23.196"
                y1="57.972"
                x2="74.259"
                y2="57.972"/>
            <line
                fill="none"
                stroke="#828282"
                x1="23.196"
                y1="31.54"
                x2="74.259"
                y2="31.54"/>
        </g>
        <g>
            <line
                fill="none"
                stroke="#828282"
                x1="30.005"
                y1="23.012"
                x2="30.005"
                y2="64.793"/>
            <line
                fill="none"
                stroke="#828282"
                x1="37.239"
                y1="23.012"
                x2="37.239"
                y2="64.793"/>
            <line
                fill="none"
                stroke="#828282"
                x1="44.473"
                y1="23.012"
                x2="44.473"
                y2="64.793"/>
            <line
                fill="none"
                stroke="#828282"
                x1="51.707"
                y1="23.012"
                x2="51.707"
                y2="64.793"/>
            <line
                fill="none"
                stroke="#828282"
                x1="58.941"
                y1="23.012"
                x2="58.941"
                y2="64.793"/>
            <line
                fill="none"
                stroke="#828282"
                x1="66.176"
                y1="23.012"
                x2="66.176"
                y2="64.793"/>
        </g>
    </g>
</svg>
