<?xml version="1.0" encoding="utf-8"?>
<!-- Generator: Adobe Illustrator 12.0.0, SVG Export Plug-In . SVG Version: 6.00 Build 51448)  -->
<!DOCTYPE svg PUBLIC "-//W3C//DTD SVG 1.1//EN" "http://www.w3.org/Graphics/SVG/1.1/DTD/svg11.dtd" [
	<!ENTITY ns_svg "http://www.w3.org/2000/svg">
	<!ENTITY ns_xlink "http://www.w3.org/1999/xlink">
]>
<svg  version="1.1" xmlns="&ns_svg;" xmlns:xlink="&ns_xlink;" width="100" height="100" viewBox="0 0 100 100"
	 overflow="visible" enable-background="new 0 0 100 100" xml:space="preserve">
<g>
	<g>
		<path fill="#828282" d="M54.242,16.701H34.036c-6.715,0.007-8.904,0.774-10.234,3.31l-4,9.121c-1.03,2.389,4.582,3.31,10.234,3.31
			h28.207c5.651,0,11.21-1.379,10.234-3.31l-4-9.121C63.499,17.82,61.535,16.694,54.242,16.701z M52.152,29.007H36.05
			c-11.725,0.004-11.248-0.826-10.426-2.901l1.682-4.381c0.806-2.375,2.646-2.096,12.67-2.096h8.111
			c9.829,0,12.302-0.085,12.979,1.507l2.186,5.18C64.225,28.909,62.179,29.007,52.152,29.007z"/>
	</g>
</g>
<path fill="#828282" d="M61.049,69.25H27.11l-8.17-36.341c0,0,2.692,2.733,9.04,2.817c3.405,0.045,28.331,0.167,31.826,0
	c7.021-0.336,9.501-2.859,9.501-2.859L61.049,69.25z"/>
</svg>
