<?xml version="1.0" encoding="utf-8"?>
<!-- Generator: Adobe Illustrator 12.0.0, SVG Export Plug-In . SVG Version: 6.00 Build 51448)  -->
<!DOCTYPE svg PUBLIC "-//W3C//DTD SVG 1.1//EN" "http://www.w3.org/Graphics/SVG/1.1/DTD/svg11.dtd" [
	<!ENTITY ns_svg "http://www.w3.org/2000/svg">
	<!ENTITY ns_xlink "http://www.w3.org/1999/xlink">
]>
<svg  version="1.1" id="Layer_1" xmlns="&ns_svg;" xmlns:xlink="&ns_xlink;" width="200.457" height="200.457"
	 viewBox="0 0 200.457 200.457" overflow="visible" enable-background="new 0 0 200.457 200.457" xml:space="preserve">
<rect y="0.457" fill="#FF6161" width="200" height="200"/>
<circle fill="#FF6161" cx="100.343" cy="99.678" r="100.228"/>
<g>
	<g>
		<polygon fill="#FF0333" points="96.248,64.375 93.445,127.176 59.688,130.643 54.351,121.852 41.477,63.067 46.63,69.904 
			93.177,64.665 82.214,58.939 		"/>
		<polygon fill="#FFFFFF" points="70.418,127.939 63.438,128.6 51.481,70.573 59.857,69.782 		"/>
		<polygon fill="#FFFFFF" points="80.165,126.738 74.86,127.24 67.117,69.097 76.303,68.23 		"/>
		<polygon fill="#FFFFFF" points="91.864,125.352 85.164,125.984 84.85,67.351 93.226,66.56 		"/>
	</g>
	<g>
		<path fill="#FFFDFD" d="M41.83,63.407c0,0-0.661-5.427,2.588-5.585c0,0-0.178-5.027,4.009-4.681c0,0-0.117-2.808,1.941-3.002
			c0,0,2.203-2.476,4.239-1.333c0,0,1.765-4.289,4.178-1.696c0,0,0.815-2.887,3.859-0.503c0,0,2.767-2.256,5.111-0.994
			c0,0,2.961-3.1,5.107,1.253c0,0,2.785-2.377,5.154,2.295c0,0,2.416-1.119,3.058,2.53c0,0,4.429-1.897,3.525,2.31
			c0,0,4.301-1.207,4.215,3.29c0,0,3.805,1.241,4.041,3.74c0,0,1.912,1.864,2.106,3.923l-48.042,5.837L41.83,63.407z"/>
	</g>
</g>
<g>
	<path fill="#FF0333" d="M140.402,127.814c0,0-5.563,3.143-15.707,1.793c-10.521-0.926-13.317-4.469-13.317-4.469l-0.696-56.802
		l40.688,4.423L140.402,127.814z"/>
	
		<ellipse transform="matrix(-0.9947 -0.1024 0.1024 -0.9947 254.0856 154.37)" fill="#FFFDFD" cx="131.005" cy="70.664" rx="20.462" ry="3.643"/>
	<g>
		<path fill="#FFFDFD" d="M132.876,71.085c0,0-0.958,0.017-1.8-0.162c-0.844-0.177-1.422-0.582-1.422-0.582l7.248-31.394
			l3.221,0.744L132.876,71.085z"/>
		<path fill="#FF0333" d="M130.527,71.15c-0.75-0.127-0.863-0.845-0.863-0.845l7.248-31.393l0.967,0.248
			C137.878,39.16,130.561,71.161,130.527,71.15z"/>
		<path fill="#FF0333" d="M132.967,70.959c0,0-0.738,0.545-1.254,0.407L139.2,39.49l0.963,0.207L132.967,70.959z"/>
	</g>
</g>
</svg>
