<?xml version="1.0" encoding="utf-8"?>
<!-- Generator: Adobe Illustrator 12.0.0, SVG Export Plug-In . SVG Version: 6.00 Build 51448)  -->
<!DOCTYPE svg PUBLIC "-//W3C//DTD SVG 1.1//EN" "http://www.w3.org/Graphics/SVG/1.1/DTD/svg11.dtd" [
	<!ENTITY ns_svg "http://www.w3.org/2000/svg">
	<!ENTITY ns_xlink "http://www.w3.org/1999/xlink">
]>
<svg  version="1.1" id="Layer_1" xmlns="&ns_svg;" xmlns:xlink="&ns_xlink;" width="200.457" height="200.457"
	 viewBox="0 0 200.457 200.457" overflow="visible" enable-background="new 0 0 200.457 200.457" xml:space="preserve">
<rect y="0.457" fill="#C183ED" width="200" height="200"/>
<circle fill="#C183ED" cx="100.228" cy="100.228" r="100.228"/>
<g>
	<path fill="#7D02AA" d="M63.483,108.872c0,0,18.172-15.574,23.364-49.033c0,0,23.652,10.384,57.399-1.442
		c0,0-3.461,12.404,4.327,18.46c0,0-13.847,3.461-27.402,3.461c0,0-1.44,21.923-12.114,34.038L103,113.489
		c0,0,10.385-16.729,10.963-33.458c0,0-10.674,0-21.635-2.884c0,0-10.384,26.25-18.749,31.439L63.483,108.872z"/>
	
		<ellipse transform="matrix(-0.9385 -0.3454 0.3454 -0.9385 90.0696 215.2167)" fill="#7D02AA" cx="64.208" cy="99.584" rx="13.727" ry="10.698"/>
	<path fill="#7D02AA" d="M110.575,111.441c-1.24,4.994-7.636,7.703-14.281,6.053c-6.643-1.653-11.021-7.047-9.777-12.042
		c1.246-4.999,7.638-7.71,14.28-6.054C107.445,101.049,111.82,106.443,110.575,111.441z"/>
</g>
</svg>
