<?xml version="1.0" encoding="utf-8"?>
<!-- Generator: Adobe Illustrator 12.0.0, SVG Export Plug-In . SVG Version: 6.00 Build 51448)  -->
<!DOCTYPE svg PUBLIC "-//W3C//DTD SVG 1.1//EN" "http://www.w3.org/Graphics/SVG/1.1/DTD/svg11.dtd" [
	<!ENTITY ns_svg "http://www.w3.org/2000/svg">
	<!ENTITY ns_xlink "http://www.w3.org/1999/xlink">
]>
<svg  version="1.1" id="Layer_1" xmlns="&ns_svg;" xmlns:xlink="&ns_xlink;" width="200.457" height="200.457"
	 viewBox="0 0 200.457 200.457" overflow="visible" enable-background="new 0 0 200.457 200.457" xml:space="preserve">
<rect y="0.457" fill="#B8E7FF" width="200" height="200"/>
<circle fill="#B8E7FF" cx="100.228" cy="100.228" r="100.228"/>
<g>
	<polygon fill="#187AA0" points="122.266,115.133 76.418,115.133 53.378,91.628 149.728,91.628 	"/>
	<rect x="92.941" y="27.395" fill="#187AA0" width="1.63" height="63.302"/>
	<polygon fill="#FDFFFF" points="89.917,88.138 53.378,88.138 89.917,29.955 	"/>
	<polygon fill="#FFFFFF" points="147.633,88.138 97.83,88.138 97.83,30.188 	"/>
</g>
<g>
	<path fill="#B8E7FF" d="M62.742,102.335c0,0,5.152,9.788,14.597,9.788c9.444,0,17.344-9.614,17.344-9.614s2.576,9.615,9.789,9.96
		c7.212,0.344,16.828-3.778,18.546-9.616c0,0,1.545,10.301,11.334,10.474c0,0-7.555,10.851-11.677,3.981
		c0,0-9.103,7.213-16.829,7.041c-7.899,0.687-12.021-9.273-12.021-9.273s-5.323,7.899-16.142,8.243
		C66.864,123.661,62.742,102.335,62.742,102.335z"/>
	<path fill="#187AA0" d="M44.079,118.506c0,0,3.838,7.292,10.875,7.292c7.037,0,12.922-7.163,12.922-7.163s1.919,7.165,7.292,7.42
		c5.373,0.257,12.537-2.814,13.817-7.164c0,0,1.151,7.676,8.444,7.805c0,0-5.629,1.15-8.701-3.967c0,0-6.779,5.373-12.538,5.246
		c-5.884,0.511-8.955-6.91-8.955-6.91s-3.967,5.886-12.026,6.142C47.149,127.461,44.079,118.506,44.079,118.506z"/>
	<path fill="#187AA0" d="M67.855,132.137c0,0,3.31,7.292,9.376,7.292c6.067,0,11.141-7.165,11.141-7.165s1.655,7.166,6.288,7.421
		c4.633,0.257,10.81-2.814,11.914-7.164c0,0,0.99,7.676,7.279,7.804c0,0-4.852,1.152-7.501-3.966c0,0-5.847,5.373-10.81,5.246
		c-5.075,0.512-7.722-6.909-7.722-6.909s-3.419,5.885-10.369,6.142C70.502,141.092,67.855,132.137,67.855,132.137z"/>
	<path fill="#187AA0" d="M97.173,114.48c0,0,3.838,7.292,10.875,7.292c7.036,0,12.921-7.164,12.921-7.164s1.92,7.166,7.293,7.421
		c5.373,0.256,12.537-2.815,13.817-7.165c0,0,1.15,7.676,8.443,7.804c0,0-5.628,1.152-8.7-3.966c0,0-6.78,5.374-12.537,5.246
		c-5.885,0.511-8.955-6.909-8.955-6.909s-3.967,5.885-12.026,6.141C100.244,123.436,97.173,114.48,97.173,114.48z"/>
</g>
</svg>
