<?xml version="1.0" encoding="utf-8"?>
<!-- Generator: Adobe Illustrator 12.0.0, SVG Export Plug-In . SVG Version: 6.00 Build 51448)  -->
<!DOCTYPE svg PUBLIC "-//W3C//DTD SVG 1.1//EN" "http://www.w3.org/Graphics/SVG/1.1/DTD/svg11.dtd" [
	<!ENTITY ns_svg "http://www.w3.org/2000/svg">
	<!ENTITY ns_xlink "http://www.w3.org/1999/xlink">
]>
<svg  version="1.1" id="Layer_1" xmlns="&ns_svg;" xmlns:xlink="&ns_xlink;" width="200.457" height="200.457"
	 viewBox="0 0 200.457 200.457" overflow="visible" enable-background="new 0 0 200.457 200.457" xml:space="preserve">
<circle fill="#FFFFFF" cx="100.228" cy="100.228" r="100.228"/>
<rect y="0.457" fill="#FFFAA1" width="200" height="200"/>
<g>
	<circle fill="#FFE600" cx="114.909" cy="72.192" r="12.613"/>
	<path fill="#FFE600" d="M112.827,88.75c0.36,0.033,0.597,0.662,0.528,1.404l-1.524,16.52c-0.067,0.743-0.416,1.317-0.776,1.284l0,0
		c-0.361-0.032-0.599-0.663-0.529-1.405l1.523-16.519C112.117,89.292,112.465,88.717,112.827,88.75L112.827,88.75z"/>
	<path fill="#FFE600" d="M117.192,36.359c0.361,0.034,0.598,0.663,0.529,1.405l-1.524,16.52c-0.068,0.742-0.416,1.317-0.776,1.283
		l0,0c-0.361-0.032-0.6-0.662-0.53-1.405l1.523-16.519C116.483,36.901,116.831,36.326,117.192,36.359L117.192,36.359z"/>
	<path fill="#FFE600" d="M106.838,86.242c0.321,0.167,0.302,0.838-0.043,1.5l-7.672,14.708c-0.345,0.661-0.885,1.062-1.206,0.894
		l0,0c-0.321-0.167-0.303-0.84,0.043-1.501l7.671-14.708C105.977,86.475,106.517,86.073,106.838,86.242L106.838,86.242z"/>
	<path fill="#FFE600" d="M130.814,40.003c0.321,0.168,0.301,0.84-0.044,1.5l-7.672,14.708c-0.345,0.661-0.885,1.061-1.206,0.894l0,0
		c-0.321-0.167-0.303-0.84,0.043-1.5l7.672-14.709C129.952,40.236,130.492,39.835,130.814,40.003L130.814,40.003z"/>
	<path fill="#FFE600" d="M101.698,81.748c0.224,0.286-0.072,0.89-0.659,1.35L87.974,93.32c-0.587,0.46-1.244,0.601-1.467,0.315l0,0
		c-0.225-0.284,0.071-0.89,0.658-1.349l13.064-10.224C100.817,81.604,101.474,81.463,101.698,81.748L101.698,81.748z"/>
	<path fill="#FFE600" d="M142.709,50.197c0.223,0.286-0.073,0.889-0.66,1.349l-13.064,10.223c-0.588,0.46-1.244,0.601-1.467,0.315
		l0,0c-0.225-0.285,0.071-0.891,0.658-1.35l13.064-10.223C141.829,50.053,142.486,49.911,142.709,50.197L142.709,50.197z"/>
	<path fill="#FFE600" d="M99.134,74.927c0.074,0.355-0.457,0.766-1.187,0.918l-16.238,3.397c-0.729,0.152-1.382-0.011-1.455-0.365
		l0,0c-0.075-0.355,0.457-0.768,1.187-0.919l16.238-3.397C98.408,74.408,99.06,74.572,99.134,74.927L99.134,74.927z"/>
	<path fill="#FFE600" d="M149.931,65.441c0.074,0.354-0.457,0.766-1.187,0.918l-16.238,3.396c-0.729,0.152-1.381-0.011-1.455-0.365
		l0,0c-0.075-0.354,0.457-0.767,1.188-0.919l16.237-3.397C149.206,64.923,149.858,65.086,149.931,65.441L149.931,65.441z"/>
	<path fill="#FFE600" d="M99.611,68.059c-0.078,0.354-0.731,0.51-1.459,0.35l-16.203-3.564c-0.728-0.16-1.255-0.576-1.176-0.93l0,0
		c0.076-0.354,0.73-0.512,1.459-0.352l16.201,3.564C99.161,67.287,99.688,67.704,99.611,68.059L99.611,68.059z"/>
	<path fill="#FFE600" d="M149.898,80.889c-0.078,0.354-0.73,0.511-1.459,0.351l-16.202-3.565c-0.729-0.16-1.255-0.576-1.177-0.93
		l0,0c0.076-0.354,0.731-0.512,1.459-0.352l16.202,3.564C149.449,80.118,149.977,80.535,149.898,80.889L149.898,80.889z"/>
	<path fill="#FFE600" d="M103.248,61.342c-0.224,0.286-0.88,0.145-1.467-0.314L88.716,50.803c-0.587-0.459-0.882-1.063-0.658-1.349
		l0,0c0.222-0.286,0.881-0.145,1.467,0.315l13.064,10.224C103.175,60.453,103.471,61.057,103.248,61.342L103.248,61.342z"/>
	<path fill="#FFE600" d="M143.097,95.348c-0.224,0.285-0.88,0.144-1.467-0.316l-13.063-10.224c-0.587-0.46-0.883-1.063-0.659-1.349
		l0,0c0.223-0.285,0.881-0.145,1.468,0.315l13.064,10.225C143.026,94.458,143.322,95.063,143.097,95.348L143.097,95.348z"/>
	<path fill="#FFE600" d="M109.383,56.678c-0.337,0.131-0.829-0.326-1.1-1.021l-6.018-15.46c-0.27-0.694-0.215-1.365,0.123-1.495l0,0
		c0.337-0.133,0.831,0.325,1.101,1.02l6.017,15.46C109.776,55.876,109.722,56.546,109.383,56.678L109.383,56.678z"/>
	<path fill="#FFE600" d="M127.795,106.585c-0.338,0.131-0.83-0.326-1.1-1.021l-6.016-15.461c-0.271-0.694-0.217-1.363,0.121-1.495
		l0,0c0.337-0.132,0.831,0.325,1.101,1.021l6.017,15.46C128.188,105.783,128.134,106.453,127.795,106.585L127.795,106.585z"/>
</g>
</svg>
