<?xml version="1.0" encoding="utf-8"?>
<!-- Generator: Adobe Illustrator 12.0.0, SVG Export Plug-In . SVG Version: 6.00 Build 51448)  -->
<!DOCTYPE svg PUBLIC "-//W3C//DTD SVG 1.1//EN" "http://www.w3.org/Graphics/SVG/1.1/DTD/svg11.dtd" [
	<!ENTITY ns_svg "http://www.w3.org/2000/svg">
	<!ENTITY ns_xlink "http://www.w3.org/1999/xlink">
]>
<svg  version="1.1" id="Layer_1" xmlns="&ns_svg;" xmlns:xlink="&ns_xlink;" width="200.457" height="200.457"
	 viewBox="0 0 200.457 200.457" overflow="visible" enable-background="new 0 0 200.457 200.457" xml:space="preserve">
<rect y="0.457" fill="#B8E7FF" width="200" height="200"/>
<circle fill="#B8E7FF" cx="100.228" cy="100.228" r="100.228"/>
<g>
	<ellipse fill="#187AA0" cx="97.265" cy="90.015" rx="48.29" ry="33.199"/>
	<path fill="#FFFFFF" d="M49.309,87.945c0,0,2.883-16.676,21.992-17.018c14.661-0.262,15.897,10.21,15.897,10.21l0,0
		c0,0,5.259-0.38,6.473-0.687c0.277-0.07,2.352-11.33-2.211-17.901c-2.742-3.949-8.378-5.76-22.885,0.77
		C48.474,72.367,49.309,87.945,49.309,87.945z"/>
	<path fill="#FFFFFF" d="M142.212,102.117c0,0-0.583-15.023-14.458-17.143c-7.435-1.136-20.848,2.446-20.848,2.446
		s0.723-8.169,7.854-13.875c3.927-3.142,17.803-11.52,26.831,3.168C150.958,91.949,142.212,102.117,142.212,102.117z"/>
	<path fill="#FFFFFF" d="M93.6,93.033c-3.094-0.182-6.036-1.724-6.036-1.724s-18.971,7.976-13.582,27.594
		c0,0,4.958,3.232,15.737,4.526c10.779,1.294,17.031-0.862,17.031-0.862s-0.615-10.035-7.114-29.534
		C99.42,92.387,97.265,93.249,93.6,93.033z"/>
	<path fill="#B8E7FF" d="M111.624,85.868c0,4.325-6.698,7.831-14.959,7.831s-14.957-3.506-14.957-7.831
		c0-4.321,6.971-6.526,15.232-6.526C105.201,79.342,111.624,81.547,111.624,85.868z"/>
</g>
</svg>
