<?xml version="1.0" encoding="utf-8"?>
<!-- Generator: Adobe Illustrator 12.0.0, SVG Export Plug-In . SVG Version: 6.00 Build 51448)  -->
<!DOCTYPE svg PUBLIC "-//W3C//DTD SVG 1.1//EN" "http://www.w3.org/Graphics/SVG/1.1/DTD/svg11.dtd" [
	<!ENTITY ns_svg "http://www.w3.org/2000/svg">
	<!ENTITY ns_xlink "http://www.w3.org/1999/xlink">
]>
<svg  version="1.1" id="Layer_1" xmlns="&ns_svg;" xmlns:xlink="&ns_xlink;" width="200.457" height="200.457"
	 viewBox="0 0 200.457 200.457" overflow="visible" enable-background="new 0 0 200.457 200.457" xml:space="preserve">
<rect y="0.457" fill="#8CEF81" width="200" height="200"/>
<circle fill="#8CEF81" cx="100.228" cy="100.228" r="100.228"/>
<g>
	<rect x="92.834" y="111.827" fill="#2B7007" width="6.472" height="26.606"/>
	<ellipse fill="#2B7007" cx="84.363" cy="102.422" rx="20.135" ry="22.832"/>
	<ellipse fill="#2B7007" cx="84.722" cy="70.422" rx="20.135" ry="22.832"/>
	<ellipse fill="#2B7007" cx="106.295" cy="70.422" rx="20.135" ry="22.832"/>
	<ellipse fill="#2B7007" cx="95.509" cy="51.366" rx="20.136" ry="22.831"/>
	<ellipse fill="#2B7007" cx="108.093" cy="101.703" rx="20.136" ry="22.832"/>
	<path fill="#3A840F" d="M99.135,93.242c5.895,16.324-3.256-3.891-14.188-6.264c-16.399-3.558-19.641,6.635-14.338-0.609
		C77.223,77.335,95.157,82.222,99.135,93.242z"/>
	<path fill="#3A840F" d="M112.561,48.396c14.272,7.628-4.687-0.497-13.755,5.576c-13.604,9.111-12.121,28.131-10.333,9.779
		C89.576,52.391,102.927,43.246,112.561,48.396z"/>
	<path fill="#3A840F" d="M107.869,33.667c11.729,12.293-4.456-2.19-15.201,0.047c-16.118,3.357-15.005,13.797-13.104,5.18
		C81.933,28.148,99.953,25.37,107.869,33.667z"/>
</g>
</svg>
