<?xml version="1.0" encoding="utf-8"?>
<!-- Generator: Adobe Illustrator 12.0.0, SVG Export Plug-In . SVG Version: 6.00 Build 51448)  -->
<!DOCTYPE svg PUBLIC "-//W3C//DTD SVG 1.1//EN" "http://www.w3.org/Graphics/SVG/1.1/DTD/svg11.dtd" [
	<!ENTITY ns_svg "http://www.w3.org/2000/svg">
	<!ENTITY ns_xlink "http://www.w3.org/1999/xlink">
]>
<svg  version="1.1" id="Layer_1" xmlns="&ns_svg;" xmlns:xlink="&ns_xlink;" width="200.457" height="200.457"
	 viewBox="0 0 200.457 200.457" overflow="visible" enable-background="new 0 0 200.457 200.457" xml:space="preserve">
<rect y="0.457" fill="#B8E7FF" width="200" height="200"/>
<circle fill="#B8E7FF" cx="100.228" cy="100.228" r="100.228"/>
<g>
	<path fill="#187AA0" d="M32.878,90.922c0,0,6.136,11.656,17.382,11.656s20.654-11.451,20.654-11.451s3.067,11.452,11.656,11.862
		c8.589,0.408,20.041-4.5,22.085-11.453c0,0,1.84,12.269,13.497,12.475c0,0-8.996,1.841-13.903-6.341c0,0-10.84,8.59-20.042,8.387
		c-9.407,0.816-14.314-11.045-14.314-11.045s-6.34,9.408-19.223,9.816S32.878,90.922,32.878,90.922z"/>
	<path fill="#187AA0" d="M79.236,70.366c0,0,6.136,11.657,17.382,11.657c11.248,0,20.654-11.451,20.654-11.451
		s3.067,11.452,11.657,11.861c8.588,0.409,20.038-4.5,22.085-11.452c0,0,1.84,12.27,13.497,12.475c0,0-8.996,1.84-13.907-6.34
		c0,0-10.837,8.589-20.039,8.384c-9.406,0.818-14.314-11.043-14.314-11.043s-6.341,9.407-19.223,9.816
		C84.146,84.681,79.236,70.366,79.236,70.366z"/>
	<path fill="#187AA0" d="M69.405,115.35c0,0,6.136,11.658,17.382,11.658c11.248,0,20.655-11.453,20.655-11.453
		s3.067,11.455,11.655,11.861c8.588,0.41,20.04-4.5,22.085-11.451c0,0,1.84,12.269,13.496,12.475c0,0-8.995,1.841-13.904-6.34
		c0,0-10.838,8.588-20.041,8.384c-9.406,0.817-14.314-11.042-14.314-11.042s-6.34,9.406-19.223,9.814
		C74.313,129.665,69.405,115.35,69.405,115.35z"/>
	<path fill="#187AA0" d="M47.729,48.073c0,0,6.135,11.655,17.382,11.655s20.654-11.451,20.654-11.451s3.068,11.452,11.657,11.86
		c8.589,0.41,20.039-4.499,22.086-11.451c0,0,1.839,12.27,13.496,12.474c0,0-8.995,1.841-13.906-6.339
		c0,0-10.838,8.588-20.041,8.385c-9.408,0.817-14.315-11.044-14.315-11.044s-6.34,9.407-19.223,9.817
		C52.635,62.387,47.729,48.073,47.729,48.073z"/>
</g>
</svg>
