<?xml version="1.0" encoding="utf-8"?>
<!-- Generator: Adobe Illustrator 12.0.0, SVG Export Plug-In . SVG Version: 6.00 Build 51448)  -->
<!DOCTYPE svg PUBLIC "-//W3C//DTD SVG 1.1//EN" "http://www.w3.org/Graphics/SVG/1.1/DTD/svg11.dtd" [
	<!ENTITY ns_svg "http://www.w3.org/2000/svg">
	<!ENTITY ns_xlink "http://www.w3.org/1999/xlink">
]>
<svg  version="1.1" id="Layer_1" xmlns="&ns_svg;" xmlns:xlink="&ns_xlink;" width="200.457" height="200.457"
	 viewBox="0 0 200.457 200.457" overflow="visible" enable-background="new 0 0 200.457 200.457" xml:space="preserve">
<rect y="0.457" fill="#FF6161" width="200" height="200"/>
<circle fill="#FF6161" cx="100.228" cy="100.228" r="100.228"/>
<g>
	<g>
		
			<ellipse transform="matrix(-0.9799 0.1997 -0.1997 -0.9799 269.1903 195.5638)" fill="#FF0333" cx="124.733" cy="111.356" rx="15.758" ry="3.762"/>
		<path fill="#FF0333" d="M95.417,61.72l21.446,21.204l5.944,28.072c0,0,1.856,0.784,2.973-0.468l-6.317-28.074l12.157-27.579
			C135.422,47.726,86.289,54.418,95.417,61.72z"/>
		
			<ellipse transform="matrix(-0.989 0.1482 -0.1482 -0.989 233.3847 97.4983)" fill="#FF6161" cx="113.06" cy="57.444" rx="18.042" ry="4.309"/>
	</g>
	<g>
		<path fill="#FF0333" d="M81.699,120.493c-0.412,2.048-7.696,2.303-16.267,0.569c-8.572-1.731-15.184-4.794-14.77-6.839
			c0.413-2.05,7.696-2.305,16.267-0.571C75.5,115.384,82.113,118.445,81.699,120.493z"/>
		<path fill="#FF0333" d="M58.509,59.948l11.54,28.021l-5.495,28.305c0,0,1.41,1.453,2.935,0.729l5.152-28.451l22.052-20.756
			C101.01,62.67,52.923,49.616,58.509,59.948z"/>
		
			<ellipse transform="matrix(-0.9685 -0.2489 0.2489 -0.9685 134.9513 142.8849)" fill="#FF6161" cx="76.509" cy="62.91" rx="18.129" ry="4.329"/>
	</g>
	<path fill="#FF0333" d="M70.245,63.888c0,0,11.443-0.177,16.02,0.176c4.577,0.352,5.985,1.408,6.337,2.289
		c0.352,0.879-1.76,1.584-5.985,1.056C82.393,66.881,70.245,63.888,70.245,63.888z"/>
	<path fill="#FF0333" d="M99.116,61.072c0,0,11.443-4.225,25.172-3.169c0,0-3.696,1.76-12.322,2.641
		C103.339,61.425,99.116,61.072,99.116,61.072z"/>
</g>
</svg>
