<svg  version="1.1"
	  id="img-home"
	  xmlns="&ns_svg;"
	  xmlns:xlink="&ns_xlink;"
	  width="100"
	  height="100"
	  viewBox="0 0 100 100"
	  overflow="visible"
	  enable-background="new 0 0 100 100"
	  xml:space="preserve">
  <defs>
    <filter
        id="home-svg"
        x="0"
        y="0"
        width="200%"
        height="200%">
      <feOffset
          result="offOut"
          in="SourceAlpha"
          dx="14"
          dy="14" />
      <feColorMatrix
          result="matrixOut"
          in="offOut"
          type="matrix"
          values="0.1 0 0 0 0 0 0.1 0 0 0 0 0 0.1 0 0 0 0 0 1 0" />
      <feGaussianBlur
          result="blurOut"
          in="matrixOut"
          stdDeviation="10" />
      <feBlend
          in="SourceGraphic"
          in2="blurOut"
          mode="normal" />
    </filter>
  </defs>
  <path class="footer-bar-svg-fill"
        fill="#002BFF"
        d="M 68.361,39.563
           c 6.156,-0.111 2.807,-4.197 -0.147,-6.473
           l -22.126,-18.065
           c -1.829,-1.747 -4.727,-1.683 -6.475,0.144
           l -22.126,18.065
           c -3,2.123 -5.311,6.629 0.146,6.473
           L 19.945,39.563
           V 66.68
           c 0,2.736 2.218,4.953 4.954,4.953
           H 60.41
           c 2.734,0 4.953,-2.219 4.953,-4.953
           V 39.563
           z
           M 32.618,56.023
           c 0,0.965 -0.781,1.746 -1.745,1.746
           h -3.407
           c -0.964,0 -1.745,-0.781 -1.745,-1.746
           v -3.408
           c 0,-0.963 0.781,-1.744 1.745,-1.744
           h 3.407
           c 0.964,0 1.745,0.781 1.745,1.744
           V 56.023
           z
           M 32.618,47.504
           c 0,0.963 -0.781,1.744 -1.745,1.744
           h -3.407
           c -0.964,0 -1.745,-0.781 -1.745,-1.744
           v -3.408
           c 0,-0.963 0.781,-1.744 1.745,-1.744
           h 3.407
           c 0.964,0 1.745,0.779 1.745,1.744
           V 47.504
           z
           M 40.894,55.959
           c 0,0.963 -0.783,1.744 -1.746,1.744
           H 35.74
           c -0.965,0 -1.747,-0.781 -1.747,-1.744
           v -3.408
           c 0,-0.963 0.782,-1.746 1.747,-1.746
           h 3.408
           c 0.963,0 1.746,0.783 1.746,1.746
           V 55.959
           z
           M 40.894,47.438
           c 0,0.965 -0.783,1.744 -1.746,1.744
           H 35.74
           c -0.965,0 -1.747,-0.779 -1.747,-1.744
           V 44.03
           c 0,-0.961 0.782,-1.746 1.747,-1.746
           h 3.408
           c 0.963,0 1.746,0.785 1.746,1.746
           V 47.438
           z"
        filter="url(#home-svg)"/>
</svg>
